<svg width="1440" height="820" viewBox="0 0 1440 820" fill="none" xmlns="http://www.w3.org/2000/svg">
<rect width="1440" height="820" fill="#8257E5"/>
<path d="M1180.77 304.235C1180.77 309.877 1176.21 314.452 1170.57 314.452C1164.94 314.452 1160.37 309.877 1160.37 304.235C1160.37 298.592 1164.94 294.018 1170.57 294.018C1176.19 294.018 1180.77 298.592 1180.77 304.235Z" stroke="#04D361" stroke-width="3" stroke-miterlimit="10" stroke-linecap="round" stroke-linejoin="round"/>
<path d="M1177.95 311.283L1185.15 318.509" stroke="#04D361" stroke-width="3" stroke-miterlimit="10" stroke-linecap="round" stroke-linejoin="round"/>
<path d="M436.848 274.154L447.582 284.903" stroke="#04D361" stroke-width="3" stroke-miterlimit="10" stroke-linecap="round" stroke-linejoin="round"/>
<path d="M447.582 274.154L436.848 284.903" stroke="#04D361" stroke-width="3" stroke-miterlimit="10" stroke-linecap="round" stroke-linejoin="round"/>
<path d="M1052.16 527.633L1062.89 538.382" stroke="#04D361" stroke-width="3" stroke-miterlimit="10" stroke-linecap="round" stroke-linejoin="round"/>
<path d="M1062.89 527.633L1052.16 538.382" stroke="#04D361" stroke-width="3" stroke-miterlimit="10" stroke-linecap="round" stroke-linejoin="round"/>
<path d="M465.657 622.133V637.333" stroke="#04D361" stroke-width="3" stroke-miterlimit="10" stroke-linecap="round" stroke-linejoin="round"/>
<path d="M473.266 629.732H458.068" stroke="#04D361" stroke-width="3" stroke-miterlimit="10" stroke-linecap="round" stroke-linejoin="round"/>
<path d="M260.699 371.247C260.699 376.337 256.575 380.485 251.473 380.485C246.39 380.485 242.248 376.355 242.248 371.247C242.248 366.156 246.372 362.009 251.473 362.009C256.575 362.027 260.699 366.156 260.699 371.247Z" stroke="#04D361" stroke-width="3" stroke-miterlimit="10" stroke-linecap="round" stroke-linejoin="round"/>
<path d="M803.628 132.056C803.628 137.147 799.504 141.294 794.403 141.294C789.319 141.294 785.177 137.165 785.177 132.056C785.177 126.966 789.301 122.818 794.403 122.818C799.504 122.836 803.628 126.966 803.628 132.056Z" stroke="#04D361" stroke-width="3" stroke-miterlimit="10" stroke-linecap="round" stroke-linejoin="round"/>
<path d="M938.971 674.585C938.971 679.676 934.847 683.823 929.746 683.823C924.662 683.823 920.521 679.693 920.521 674.585C920.521 669.494 924.644 665.347 929.746 665.347C934.847 665.365 938.971 669.494 938.971 674.585Z" stroke="#04D361" stroke-width="3" stroke-miterlimit="10" stroke-linecap="round" stroke-linejoin="round"/>
<path d="M164.146 498.691C165.991 498.691 167.487 497.194 167.487 495.346C167.487 493.498 165.991 492 164.146 492C162.301 492 160.805 493.498 160.805 495.346C160.805 497.194 162.301 498.691 164.146 498.691Z" fill="#9871F5"/>
<path d="M187.484 498.691C189.329 498.691 190.825 497.194 190.825 495.346C190.825 493.498 189.329 492 187.484 492C185.638 492 184.143 493.498 184.143 495.346C184.143 497.194 185.638 498.691 187.484 498.691Z" fill="#9871F5"/>
<path d="M210.805 498.691C212.65 498.691 214.146 497.194 214.146 495.346C214.146 493.498 212.65 492 210.805 492C208.96 492 207.464 493.498 207.464 495.346C207.464 497.194 208.96 498.691 210.805 498.691Z" fill="#9871F5"/>
<path d="M234.144 498.691C235.99 498.691 237.486 497.194 237.486 495.346C237.486 493.498 235.99 492 234.144 492C232.299 492 230.803 493.498 230.803 495.346C230.803 497.194 232.299 498.691 234.144 498.691Z" fill="#9871F5"/>
<path d="M257.465 498.691C259.31 498.691 260.806 497.194 260.806 495.346C260.806 493.498 259.31 492 257.465 492C255.619 492 254.124 493.498 254.124 495.346C254.124 497.194 255.619 498.691 257.465 498.691Z" fill="#9871F5"/>
<path d="M280.804 498.691C282.649 498.691 284.145 497.194 284.145 495.346C284.145 493.498 282.649 492 280.804 492C278.958 492 277.462 493.498 277.462 495.346C277.462 497.194 278.958 498.691 280.804 498.691Z" fill="#9871F5"/>
<path d="M164.145 522.044C165.991 522.044 167.486 520.546 167.486 518.698C167.486 516.851 165.991 515.353 164.145 515.353C162.3 515.353 160.804 516.851 160.804 518.698C160.804 520.546 162.3 522.044 164.145 522.044Z" fill="#9871F5"/>
<path d="M187.484 522.044C189.329 522.044 190.825 520.546 190.825 518.698C190.825 516.851 189.329 515.353 187.484 515.353C185.638 515.353 184.143 516.851 184.143 518.698C184.143 520.546 185.638 522.044 187.484 522.044Z" fill="#9871F5"/>
<path d="M210.805 522.044C212.651 522.044 214.147 520.546 214.147 518.698C214.147 516.851 212.651 515.353 210.805 515.353C208.96 515.353 207.464 516.851 207.464 518.698C207.464 520.546 208.96 522.044 210.805 522.044Z" fill="#9871F5"/>
<path d="M234.144 522.044C235.99 522.044 237.486 520.546 237.486 518.698C237.486 516.851 235.99 515.353 234.144 515.353C232.299 515.353 230.803 516.851 230.803 518.698C230.803 520.546 232.299 522.044 234.144 522.044Z" fill="#9871F5"/>
<path d="M257.465 522.044C259.31 522.044 260.806 520.546 260.806 518.698C260.806 516.851 259.31 515.353 257.465 515.353C255.619 515.353 254.124 516.851 254.124 518.698C254.124 520.546 255.619 522.044 257.465 522.044Z" fill="#9871F5"/>
<path d="M280.804 522.044C282.649 522.044 284.145 520.546 284.145 518.698C284.145 516.851 282.649 515.353 280.804 515.353C278.958 515.353 277.462 516.851 277.462 518.698C277.462 520.546 278.958 522.044 280.804 522.044Z" fill="#9871F5"/>
<path d="M164.145 545.415C165.991 545.415 167.486 543.917 167.486 542.069C167.486 540.221 165.991 538.724 164.145 538.724C162.3 538.724 160.804 540.221 160.804 542.069C160.804 543.917 162.3 545.415 164.145 545.415Z" fill="#9871F5"/>
<path d="M187.484 545.415C189.329 545.415 190.825 543.917 190.825 542.069C190.825 540.221 189.329 538.724 187.484 538.724C185.638 538.724 184.143 540.221 184.143 542.069C184.143 543.917 185.638 545.415 187.484 545.415Z" fill="#9871F5"/>
<path d="M210.805 545.415C212.651 545.415 214.147 543.917 214.147 542.069C214.147 540.221 212.651 538.724 210.805 538.724C208.96 538.724 207.464 540.221 207.464 542.069C207.464 543.917 208.96 545.415 210.805 545.415Z" fill="#9871F5"/>
<path d="M234.144 545.415C235.99 545.415 237.486 543.917 237.486 542.069C237.486 540.221 235.99 538.724 234.144 538.724C232.299 538.724 230.803 540.221 230.803 542.069C230.803 543.917 232.299 545.415 234.144 545.415Z" fill="#9871F5"/>
<path d="M257.465 545.415C259.31 545.415 260.806 543.917 260.806 542.069C260.806 540.221 259.31 538.724 257.465 538.724C255.619 538.724 254.124 540.221 254.124 542.069C254.124 543.917 255.619 545.415 257.465 545.415Z" fill="#9871F5"/>
<path d="M280.804 545.415C282.649 545.415 284.145 543.917 284.145 542.069C284.145 540.221 282.649 538.724 280.804 538.724C278.958 538.724 277.462 540.221 277.462 542.069C277.462 543.917 278.958 545.415 280.804 545.415Z" fill="#9871F5"/>
<path d="M164.145 568.768C165.991 568.768 167.486 567.27 167.486 565.422C167.486 563.574 165.991 562.076 164.145 562.076C162.3 562.076 160.804 563.574 160.804 565.422C160.804 567.27 162.3 568.768 164.145 568.768Z" fill="#9871F5"/>
<path d="M187.484 568.768C189.329 568.768 190.825 567.27 190.825 565.422C190.825 563.574 189.329 562.076 187.484 562.076C185.638 562.076 184.143 563.574 184.143 565.422C184.143 567.27 185.638 568.768 187.484 568.768Z" fill="#9871F5"/>
<path d="M210.805 568.768C212.651 568.768 214.147 567.27 214.147 565.422C214.147 563.574 212.651 562.076 210.805 562.076C208.96 562.076 207.464 563.574 207.464 565.422C207.464 567.27 208.96 568.768 210.805 568.768Z" fill="#9871F5"/>
<path d="M234.144 568.768C235.99 568.768 237.486 567.27 237.486 565.422C237.486 563.574 235.99 562.076 234.144 562.076C232.299 562.076 230.803 563.574 230.803 565.422C230.803 567.27 232.299 568.768 234.144 568.768Z" fill="#9871F5"/>
<path d="M257.465 568.768C259.31 568.768 260.806 567.27 260.806 565.422C260.806 563.574 259.31 562.076 257.465 562.076C255.619 562.076 254.124 563.574 254.124 565.422C254.124 567.27 255.619 568.768 257.465 568.768Z" fill="#9871F5"/>
<path d="M280.804 568.768C282.649 568.768 284.145 567.27 284.145 565.422C284.145 563.574 282.649 562.076 280.804 562.076C278.958 562.076 277.462 563.574 277.462 565.422C277.462 567.27 278.958 568.768 280.804 568.768Z" fill="#9871F5"/>
<path d="M933.976 265.618C935.822 265.618 937.318 264.12 937.318 262.272C937.318 260.424 935.822 258.926 933.976 258.926C932.131 258.926 930.635 260.424 930.635 262.272C930.635 264.12 932.131 265.618 933.976 265.618Z" fill="#9871F5"/>
<path d="M957.297 265.618C959.142 265.618 960.638 264.12 960.638 262.272C960.638 260.424 959.142 258.926 957.297 258.926C955.452 258.926 953.956 260.424 953.956 262.272C953.956 264.12 955.452 265.618 957.297 265.618Z" fill="#9871F5"/>
<path d="M980.636 265.618C982.481 265.618 983.977 264.12 983.977 262.272C983.977 260.424 982.481 258.926 980.636 258.926C978.79 258.926 977.294 260.424 977.294 262.272C977.294 264.12 978.79 265.618 980.636 265.618Z" fill="#9871F5"/>
<path d="M933.976 288.988C935.821 288.988 937.317 287.49 937.317 285.642C937.317 283.795 935.821 282.297 933.976 282.297C932.131 282.297 930.635 283.795 930.635 285.642C930.635 287.49 932.131 288.988 933.976 288.988Z" fill="#9871F5"/>
<path d="M957.297 288.988C959.142 288.988 960.638 287.49 960.638 285.643C960.638 283.795 959.142 282.297 957.297 282.297C955.452 282.297 953.956 283.795 953.956 285.643C953.956 287.49 955.452 288.988 957.297 288.988Z" fill="#9871F5"/>
<path d="M980.636 288.988C982.481 288.988 983.977 287.49 983.977 285.643C983.977 283.795 982.481 282.297 980.636 282.297C978.79 282.297 977.294 283.795 977.294 285.643C977.294 287.49 978.79 288.988 980.636 288.988Z" fill="#9871F5"/>
<path d="M421.705 143.433C423.55 143.433 425.046 141.935 425.046 140.088C425.046 138.24 423.55 136.742 421.705 136.742C419.86 136.742 418.364 138.24 418.364 140.088C418.364 141.935 419.86 143.433 421.705 143.433Z" fill="#9871F5"/>
<path d="M445.025 143.433C446.87 143.433 448.366 141.935 448.366 140.088C448.366 138.24 446.87 136.742 445.025 136.742C443.18 136.742 441.684 138.24 441.684 140.088C441.684 141.935 443.18 143.433 445.025 143.433Z" fill="#9871F5"/>
<path d="M468.364 143.433C470.209 143.433 471.705 141.935 471.705 140.088C471.705 138.24 470.209 136.742 468.364 136.742C466.518 136.742 465.022 138.24 465.022 140.088C465.022 141.935 466.518 143.433 468.364 143.433Z" fill="#9871F5"/>
<path d="M421.704 166.804C423.55 166.804 425.046 165.306 425.046 163.458C425.046 161.61 423.55 160.112 421.704 160.112C419.859 160.112 418.363 161.61 418.363 163.458C418.363 165.306 419.859 166.804 421.704 166.804Z" fill="#9871F5"/>
<path d="M445.025 166.804C446.87 166.804 448.366 165.306 448.366 163.458C448.366 161.61 446.87 160.112 445.025 160.112C443.18 160.112 441.684 161.61 441.684 163.458C441.684 165.306 443.18 166.804 445.025 166.804Z" fill="#9871F5"/>
<path d="M468.365 166.804C470.21 166.804 471.706 165.306 471.706 163.458C471.706 161.61 470.21 160.112 468.365 160.112C466.519 160.112 465.023 161.61 465.023 163.458C465.023 165.306 466.519 166.804 468.365 166.804Z" fill="#9871F5"/>
<path d="M1276.66 498.691C1278.5 498.691 1280 497.194 1280 495.346C1280 493.498 1278.5 492 1276.66 492C1274.81 492 1273.32 493.498 1273.32 495.346C1273.32 497.194 1274.81 498.691 1276.66 498.691Z" fill="#9871F5"/>
<path d="M1276.66 522.062C1278.5 522.062 1280 520.564 1280 518.716C1280 516.869 1278.5 515.371 1276.66 515.371C1274.81 515.371 1273.32 516.869 1273.32 518.716C1273.32 520.564 1274.81 522.062 1276.66 522.062Z" fill="#9871F5"/>
<path d="M1276.66 545.415C1278.5 545.415 1280 543.917 1280 542.069C1280 540.221 1278.5 538.723 1276.66 538.723C1274.81 538.723 1273.32 540.221 1273.32 542.069C1273.32 543.917 1274.81 545.415 1276.66 545.415Z" fill="#9871F5"/>
<path d="M1276.66 568.786C1278.5 568.786 1280 567.288 1280 565.44C1280 563.592 1278.5 562.094 1276.66 562.094C1274.81 562.094 1273.32 563.592 1273.32 565.44C1273.32 567.288 1274.81 568.786 1276.66 568.786Z" fill="#9871F5"/>
<path d="M1276.66 592.138C1278.5 592.138 1280 590.641 1280 588.793C1280 586.945 1278.5 585.447 1276.66 585.447C1274.81 585.447 1273.32 586.945 1273.32 588.793C1273.32 590.641 1274.81 592.138 1276.66 592.138Z" fill="#9871F5"/>
<path d="M1276.66 615.509C1278.5 615.509 1280 614.011 1280 612.163C1280 610.315 1278.5 608.818 1276.66 608.818C1274.81 608.818 1273.32 610.315 1273.32 612.163C1273.32 614.011 1274.81 615.509 1276.66 615.509Z" fill="#9871F5"/>
<path d="M1276.66 638.862C1278.5 638.862 1280 637.364 1280 635.516C1280 633.668 1278.5 632.17 1276.66 632.17C1274.81 632.17 1273.32 633.668 1273.32 635.516C1273.32 637.364 1274.81 638.862 1276.66 638.862Z" fill="#9871F5"/>
<path d="M1253.32 498.691C1255.17 498.691 1256.66 497.194 1256.66 495.346C1256.66 493.498 1255.17 492 1253.32 492C1251.48 492 1249.98 493.498 1249.98 495.346C1249.98 497.194 1251.48 498.691 1253.32 498.691Z" fill="#9871F5"/>
<path d="M1253.32 522.062C1255.17 522.062 1256.66 520.564 1256.66 518.716C1256.66 516.869 1255.17 515.371 1253.32 515.371C1251.48 515.371 1249.98 516.869 1249.98 518.716C1249.98 520.564 1251.48 522.062 1253.32 522.062Z" fill="#9871F5"/>
<path d="M1253.32 545.415C1255.17 545.415 1256.66 543.917 1256.66 542.069C1256.66 540.221 1255.17 538.723 1253.32 538.723C1251.48 538.723 1249.98 540.221 1249.98 542.069C1249.98 543.917 1251.48 545.415 1253.32 545.415Z" fill="#9871F5"/>
<path d="M1253.32 568.786C1255.17 568.786 1256.66 567.288 1256.66 565.44C1256.66 563.592 1255.17 562.094 1253.32 562.094C1251.48 562.094 1249.98 563.592 1249.98 565.44C1249.98 567.288 1251.48 568.786 1253.32 568.786Z" fill="#9871F5"/>
<path d="M1253.32 592.138C1255.17 592.138 1256.66 590.641 1256.66 588.793C1256.66 586.945 1255.17 585.447 1253.32 585.447C1251.48 585.447 1249.98 586.945 1249.98 588.793C1249.98 590.641 1251.48 592.138 1253.32 592.138Z" fill="#9871F5"/>
<path d="M1253.32 615.509C1255.17 615.509 1256.66 614.011 1256.66 612.163C1256.66 610.315 1255.17 608.818 1253.32 608.818C1251.48 608.818 1249.98 610.315 1249.98 612.163C1249.98 614.011 1251.48 615.509 1253.32 615.509Z" fill="#9871F5"/>
<path d="M1253.32 638.862C1255.17 638.862 1256.66 637.364 1256.66 635.516C1256.66 633.668 1255.17 632.17 1253.32 632.17C1251.48 632.17 1249.98 633.668 1249.98 635.516C1249.98 637.364 1251.48 638.862 1253.32 638.862Z" fill="#9871F5"/>
<path d="M1230 498.691C1231.84 498.691 1233.34 497.194 1233.34 495.346C1233.34 493.498 1231.84 492 1230 492C1228.15 492 1226.66 493.498 1226.66 495.346C1226.66 497.194 1228.15 498.691 1230 498.691Z" fill="#9871F5"/>
<path d="M1230 522.062C1231.84 522.062 1233.34 520.564 1233.34 518.716C1233.34 516.869 1231.84 515.371 1230 515.371C1228.15 515.371 1226.66 516.869 1226.66 518.716C1226.66 520.564 1228.15 522.062 1230 522.062Z" fill="#9871F5"/>
<path d="M1230 545.415C1231.84 545.415 1233.34 543.917 1233.34 542.069C1233.34 540.221 1231.84 538.723 1230 538.723C1228.15 538.723 1226.66 540.221 1226.66 542.069C1226.66 543.917 1228.15 545.415 1230 545.415Z" fill="#9871F5"/>
<path d="M1230 568.786C1231.84 568.786 1233.34 567.288 1233.34 565.44C1233.34 563.592 1231.84 562.094 1230 562.094C1228.15 562.094 1226.66 563.592 1226.66 565.44C1226.66 567.288 1228.15 568.786 1230 568.786Z" fill="#9871F5"/>
<path d="M1230 592.138C1231.84 592.138 1233.34 590.641 1233.34 588.793C1233.34 586.945 1231.84 585.447 1230 585.447C1228.15 585.447 1226.66 586.945 1226.66 588.793C1226.66 590.641 1228.15 592.138 1230 592.138Z" fill="#9871F5"/>
<path d="M1230 615.509C1231.84 615.509 1233.34 614.011 1233.34 612.163C1233.34 610.315 1231.84 608.818 1230 608.818C1228.15 608.818 1226.66 610.315 1226.66 612.163C1226.66 614.011 1228.15 615.509 1230 615.509Z" fill="#9871F5"/>
<path d="M1230 638.862C1231.84 638.862 1233.34 637.364 1233.34 635.516C1233.34 633.668 1231.84 632.17 1230 632.17C1228.15 632.17 1226.66 633.668 1226.66 635.516C1226.66 637.364 1228.15 638.862 1230 638.862Z" fill="#9871F5"/>
<path d="M1206.66 498.691C1208.51 498.691 1210 497.194 1210 495.346C1210 493.498 1208.51 492 1206.66 492C1204.82 492 1203.32 493.498 1203.32 495.346C1203.32 497.194 1204.82 498.691 1206.66 498.691Z" fill="#9871F5"/>
<path d="M1206.66 522.062C1208.51 522.062 1210 520.564 1210 518.716C1210 516.869 1208.51 515.371 1206.66 515.371C1204.81 515.371 1203.32 516.869 1203.32 518.716C1203.32 520.564 1204.81 522.062 1206.66 522.062Z" fill="#9871F5"/>
<path d="M1206.66 545.415C1208.51 545.415 1210 543.917 1210 542.069C1210 540.221 1208.51 538.724 1206.66 538.724C1204.81 538.724 1203.32 540.221 1203.32 542.069C1203.32 543.917 1204.81 545.415 1206.66 545.415Z" fill="#9871F5"/>
<path d="M1206.66 568.786C1208.51 568.786 1210 567.288 1210 565.44C1210 563.592 1208.51 562.094 1206.66 562.094C1204.81 562.094 1203.32 563.592 1203.32 565.44C1203.32 567.288 1204.81 568.786 1206.66 568.786Z" fill="#9871F5"/>
<path d="M1206.66 592.138C1208.51 592.138 1210 590.641 1210 588.793C1210 586.945 1208.51 585.447 1206.66 585.447C1204.81 585.447 1203.32 586.945 1203.32 588.793C1203.32 590.641 1204.81 592.138 1206.66 592.138Z" fill="#9871F5"/>
<path d="M1206.66 615.509C1208.51 615.509 1210 614.011 1210 612.163C1210 610.315 1208.51 608.818 1206.66 608.818C1204.81 608.818 1203.32 610.315 1203.32 612.163C1203.32 614.011 1204.81 615.509 1206.66 615.509Z" fill="#9871F5"/>
<path d="M1206.66 638.862C1208.51 638.862 1210 637.364 1210 635.516C1210 633.668 1208.51 632.17 1206.66 632.17C1204.81 632.17 1203.32 633.668 1203.32 635.516C1203.32 637.364 1204.81 638.862 1206.66 638.862Z" fill="#9871F5"/>
<path d="M489.626 402.648C477.674 402.648 471.698 396.258 471.698 383.478C471.698 377.07 473.264 372.282 476.396 369.114C479.528 365.91 483.938 364.308 489.626 364.308C492.758 364.308 495.566 364.848 498.05 365.928C500.57 366.972 502.55 368.592 503.99 370.788C505.466 372.948 506.204 375.594 506.204 378.726H498.158C498.158 376.314 497.384 374.424 495.836 373.056C494.288 371.652 492.272 370.95 489.788 370.95C486.404 370.95 483.884 371.958 482.228 373.974C480.572 375.99 479.744 378.888 479.744 382.668V384.288C479.744 392.1 483.092 396.006 489.788 396.006C492.416 396.006 494.504 395.322 496.052 393.954C497.636 392.586 498.428 390.696 498.428 388.284H506.204C506.204 391.452 505.484 394.116 504.044 396.276C502.604 398.4 500.642 400.002 498.158 401.082C495.674 402.126 492.83 402.648 489.626 402.648ZM518.768 402.648C516.572 402.648 514.556 402.072 512.72 400.92C510.884 399.768 509.966 397.68 509.966 394.656C509.966 391.02 511.46 388.446 514.448 386.934C517.436 385.386 521.666 384.612 527.138 384.612V382.614C527.138 381.354 526.85 380.382 526.274 379.698C525.734 379.014 524.69 378.672 523.142 378.672C521.486 378.672 520.298 378.924 519.578 379.428C518.894 379.932 518.552 380.526 518.552 381.21V382.02H511.424C511.388 381.804 511.37 381.408 511.37 380.832C511.37 378.456 512.414 376.548 514.502 375.108C516.626 373.668 519.434 372.948 522.926 372.948C526.814 372.948 529.712 373.74 531.62 375.324C533.564 376.908 534.536 379.194 534.536 382.182V394.71C534.536 395.358 534.716 395.844 535.076 396.168C535.436 396.456 535.886 396.6 536.426 396.6H537.938V401.784C536.786 402.36 535.364 402.648 533.672 402.648C532.196 402.648 530.954 402.324 529.946 401.676C528.974 401.028 528.308 400.11 527.948 398.922H527.624C526.58 400.146 525.374 401.082 524.006 401.73C522.674 402.342 520.928 402.648 518.768 402.648ZM521.09 396.816C523.178 396.816 524.708 396.24 525.68 395.088C526.652 393.9 527.138 392.334 527.138 390.39V389.526C520.694 389.526 517.472 390.966 517.472 393.846C517.472 394.746 517.76 395.466 518.336 396.006C518.948 396.546 519.866 396.816 521.09 396.816ZM551.744 402.648C548.144 402.648 545.354 401.424 543.374 398.976C541.394 396.492 540.404 392.748 540.404 387.744C540.404 382.848 541.394 379.158 543.374 376.674C545.39 374.19 548.054 372.948 551.366 372.948C553.274 372.948 554.948 373.29 556.388 373.974C557.864 374.658 559.016 375.63 559.844 376.89H560.168V362.958H567.566V402H561.248L560.762 398.274H560.384C559.484 399.714 558.278 400.812 556.766 401.568C555.254 402.288 553.58 402.648 551.744 402.648ZM554.12 396.222C558.152 396.222 560.168 393.576 560.168 388.284V387.42C560.168 382.056 558.152 379.374 554.12 379.374C551.924 379.374 550.358 380.04 549.422 381.372C548.486 382.668 548.018 384.648 548.018 387.312V388.284C548.018 390.948 548.486 392.946 549.422 394.278C550.358 395.574 551.924 396.222 554.12 396.222ZM581.786 402.648C579.59 402.648 577.574 402.072 575.738 400.92C573.902 399.768 572.984 397.68 572.984 394.656C572.984 391.02 574.478 388.446 577.466 386.934C580.454 385.386 584.684 384.612 590.156 384.612V382.614C590.156 381.354 589.868 380.382 589.292 379.698C588.752 379.014 587.708 378.672 586.16 378.672C584.504 378.672 583.316 378.924 582.596 379.428C581.912 379.932 581.57 380.526 581.57 381.21V382.02H574.442C574.406 381.804 574.388 381.408 574.388 380.832C574.388 378.456 575.432 376.548 577.52 375.108C579.644 373.668 582.452 372.948 585.944 372.948C589.832 372.948 592.73 373.74 594.638 375.324C596.582 376.908 597.554 379.194 597.554 382.182V394.71C597.554 395.358 597.734 395.844 598.094 396.168C598.454 396.456 598.904 396.6 599.444 396.6H600.956V401.784C599.804 402.36 598.382 402.648 596.69 402.648C595.214 402.648 593.972 402.324 592.964 401.676C591.992 401.028 591.326 400.11 590.966 398.922H590.642C589.598 400.146 588.392 401.082 587.024 401.73C585.692 402.342 583.946 402.648 581.786 402.648ZM584.108 396.816C586.196 396.816 587.726 396.24 588.698 395.088C589.67 393.9 590.156 392.334 590.156 390.39V389.526C583.712 389.526 580.49 390.966 580.49 393.846C580.49 394.746 580.778 395.466 581.354 396.006C581.966 396.546 582.884 396.816 584.108 396.816ZM616.598 402.648C612.638 402.648 609.524 401.838 607.256 400.218C605.024 398.562 603.908 396.366 603.908 393.63L603.962 392.982H611.144V393.36C611.18 394.62 611.738 395.538 612.818 396.114C613.934 396.654 615.284 396.924 616.868 396.924C618.344 396.924 619.604 396.726 620.648 396.33C621.692 395.934 622.214 395.286 622.214 394.386C622.214 393.378 621.674 392.622 620.594 392.118C619.55 391.614 617.894 391.11 615.626 390.606C613.286 390.066 611.378 389.526 609.902 388.986C608.426 388.41 607.148 387.528 606.068 386.34C604.988 385.152 604.448 383.568 604.448 381.588C604.448 378.816 605.6 376.692 607.904 375.216C610.244 373.704 613.25 372.948 616.922 372.948C620.342 372.948 623.168 373.65 625.4 375.054C627.632 376.422 628.748 378.294 628.748 380.67L628.694 381.912H621.512V381.588C621.512 380.652 621.062 379.932 620.162 379.428C619.298 378.924 618.128 378.672 616.652 378.672C615.176 378.672 614.006 378.87 613.142 379.266C612.278 379.662 611.846 380.22 611.846 380.94C611.846 381.84 612.332 382.506 613.304 382.938C614.312 383.37 615.914 383.802 618.11 384.234C620.522 384.774 622.484 385.314 623.996 385.854C625.508 386.394 626.822 387.276 627.938 388.5C629.054 389.724 629.612 391.38 629.612 393.468C629.612 399.588 625.274 402.648 616.598 402.648ZM642.878 402.648C640.214 402.648 638.306 401.928 637.154 400.488C636.002 399.048 635.426 397.23 635.426 395.034V379.644H632.024V373.596H635.588L636.83 365.604H642.824V373.596H647.738V379.644H642.824V394.278C642.824 395.826 643.598 396.6 645.146 396.6H647.738V401.784C647.126 402 646.352 402.198 645.416 402.378C644.516 402.558 643.67 402.648 642.878 402.648ZM653.246 373.596H659.564L660.158 378.186H660.536C661.148 376.566 661.94 375.288 662.912 374.352C663.884 373.416 665.162 372.948 666.746 372.948C667.79 372.948 668.726 373.11 669.554 373.434V380.346H667.502C665.09 380.346 663.344 381.012 662.264 382.344C661.184 383.64 660.644 385.62 660.644 388.284V402H653.246V373.596ZM686.87 402.648C682.01 402.648 678.392 401.442 676.016 399.03C673.64 396.618 672.452 392.874 672.452 387.798C672.452 382.722 673.64 378.978 676.016 376.566C678.392 374.154 682.01 372.948 686.87 372.948C691.73 372.948 695.348 374.154 697.724 376.566C700.136 378.978 701.342 382.722 701.342 387.798C701.342 392.874 700.136 396.618 697.724 399.03C695.348 401.442 691.73 402.648 686.87 402.648ZM686.87 396.6C689.282 396.6 691.028 395.916 692.108 394.548C693.188 393.144 693.728 391.038 693.728 388.23V387.366C693.728 384.558 693.188 382.47 692.108 381.102C691.028 379.698 689.282 378.996 686.87 378.996C684.458 378.996 682.712 379.698 681.632 381.102C680.588 382.47 680.066 384.558 680.066 387.366V388.23C680.066 391.038 680.588 393.144 681.632 394.548C682.712 395.916 684.458 396.6 686.87 396.6ZM734.047 402.648C729.511 402.648 726.109 401.442 723.841 399.03C721.609 396.618 720.493 392.874 720.493 387.798C720.493 382.758 721.609 379.032 723.841 376.62C726.109 374.172 729.511 372.948 734.047 372.948C737.827 372.948 740.833 373.92 743.065 375.864C745.333 377.772 746.467 380.58 746.467 384.288H739.015C739.015 382.56 738.565 381.228 737.665 380.292C736.765 379.356 735.505 378.888 733.885 378.888C731.869 378.888 730.375 379.608 729.403 381.048C728.467 382.452 727.999 384.558 727.999 387.366V388.23C727.999 391.038 728.485 393.162 729.457 394.602C730.465 396.006 732.067 396.708 734.263 396.708C735.811 396.708 737.035 396.24 737.935 395.304C738.871 394.332 739.339 393 739.339 391.308H746.467C746.467 395.016 745.351 397.842 743.119 399.786C740.887 401.694 737.863 402.648 734.047 402.648ZM764.917 402.648C760.057 402.648 756.439 401.442 754.063 399.03C751.687 396.618 750.499 392.874 750.499 387.798C750.499 382.722 751.687 378.978 754.063 376.566C756.439 374.154 760.057 372.948 764.917 372.948C769.777 372.948 773.395 374.154 775.771 376.566C778.183 378.978 779.389 382.722 779.389 387.798C779.389 392.874 778.183 396.618 775.771 399.03C773.395 401.442 769.777 402.648 764.917 402.648ZM764.917 396.6C767.329 396.6 769.075 395.916 770.155 394.548C771.235 393.144 771.775 391.038 771.775 388.23V387.366C771.775 384.558 771.235 382.47 770.155 381.102C769.075 379.698 767.329 378.996 764.917 378.996C762.505 378.996 760.759 379.698 759.679 381.102C758.635 382.47 758.113 384.558 758.113 387.366V388.23C758.113 391.038 758.635 393.144 759.679 394.548C760.759 395.916 762.505 396.6 764.917 396.6ZM785.293 373.596H791.611L792.151 377.322H792.529C794.833 374.406 797.785 372.948 801.385 372.948C804.301 372.948 806.587 373.74 808.243 375.324C809.935 376.908 810.781 379.446 810.781 382.938V402H803.383V384.504C803.383 382.74 802.969 381.462 802.141 380.67C801.313 379.878 800.089 379.482 798.469 379.482C796.813 379.482 795.427 380.076 794.311 381.264C793.231 382.416 792.691 383.856 792.691 385.584V402H785.293V373.596ZM830.077 402.648C825.541 402.648 822.139 401.442 819.871 399.03C817.639 396.618 816.523 392.874 816.523 387.798C816.523 382.758 817.639 379.032 819.871 376.62C822.139 374.172 825.541 372.948 830.077 372.948C833.857 372.948 836.863 373.92 839.095 375.864C841.363 377.772 842.497 380.58 842.497 384.288H835.045C835.045 382.56 834.595 381.228 833.695 380.292C832.795 379.356 831.535 378.888 829.915 378.888C827.899 378.888 826.405 379.608 825.433 381.048C824.497 382.452 824.029 384.558 824.029 387.366V388.23C824.029 391.038 824.515 393.162 825.487 394.602C826.495 396.006 828.097 396.708 830.293 396.708C831.841 396.708 833.065 396.24 833.965 395.304C834.901 394.332 835.369 393 835.369 391.308H842.497C842.497 395.016 841.381 397.842 839.149 399.786C836.917 401.694 833.893 402.648 830.077 402.648ZM848.311 362.958H855.709V402H848.311V362.958ZM872.574 402.648C869.658 402.648 867.354 401.856 865.662 400.272C864.006 398.688 863.178 396.15 863.178 392.658V373.596H870.576V391.092C870.576 392.856 870.99 394.134 871.818 394.926C872.646 395.718 873.87 396.114 875.49 396.114C877.146 396.114 878.514 395.538 879.594 394.386C880.71 393.198 881.268 391.74 881.268 390.012V373.596H888.666V402H882.348L881.808 398.274H881.43C879.126 401.19 876.174 402.648 872.574 402.648ZM896.298 373.596H903.696V402H896.298V373.596ZM901.482 362.958H908.664L908.718 363.12L902.886 370.086H897.216L901.482 362.958ZM920.885 402.648C917.285 402.648 914.495 401.424 912.515 398.976C910.535 396.492 909.545 392.748 909.545 387.744C909.545 382.848 910.535 379.158 912.515 376.674C914.531 374.19 917.195 372.948 920.507 372.948C922.415 372.948 924.089 373.29 925.529 373.974C927.005 374.658 928.157 375.63 928.985 376.89H929.309V362.958H936.707V402H930.389L929.903 398.274H929.525C928.625 399.714 927.419 400.812 925.907 401.568C924.395 402.288 922.721 402.648 920.885 402.648ZM923.261 396.222C927.293 396.222 929.309 393.576 929.309 388.284V387.42C929.309 382.056 927.293 379.374 923.261 379.374C921.065 379.374 919.499 380.04 918.563 381.372C917.627 382.668 917.159 384.648 917.159 387.312V388.284C917.159 390.948 917.627 392.946 918.563 394.278C919.499 395.574 921.065 396.222 923.261 396.222ZM957.029 402.648C952.169 402.648 948.551 401.442 946.175 399.03C943.799 396.618 942.611 392.874 942.611 387.798C942.611 382.722 943.799 378.978 946.175 376.566C948.551 374.154 952.169 372.948 957.029 372.948C961.889 372.948 965.507 374.154 967.883 376.566C970.295 378.978 971.501 382.722 971.501 387.798C971.501 392.874 970.295 396.618 967.883 399.03C965.507 401.442 961.889 402.648 957.029 402.648ZM957.029 396.6C959.441 396.6 961.187 395.916 962.267 394.548C963.347 393.144 963.887 391.038 963.887 388.23V387.366C963.887 384.558 963.347 382.47 962.267 381.102C961.187 379.698 959.441 378.996 957.029 378.996C954.617 378.996 952.871 379.698 951.791 381.102C950.747 382.47 950.225 384.558 950.225 387.366V388.23C950.225 391.038 950.747 393.144 951.791 394.548C952.871 395.916 954.617 396.6 957.029 396.6Z" fill="white"/>
<path d="M545.915 448H547.451L543.435 436.912H541.755L537.723 448H539.259L540.155 445.52H545.019L545.915 448ZM544.603 444.336H540.571L542.587 438.704L544.603 444.336ZM548.665 443.584C548.665 446.304 550.473 448.144 552.825 448.144C554.425 448.144 555.561 447.296 556.089 446.352V448.192C556.089 450.064 554.921 451.056 553.369 451.056C551.929 451.056 550.889 450.336 550.569 449.28H549.129C549.417 451.152 551.065 452.32 553.369 452.32C555.945 452.32 557.561 450.608 557.561 448.192V439.232H556.089V440.832C555.577 439.888 554.425 439.088 552.825 439.088C550.473 439.088 548.665 440.848 548.665 443.584ZM556.089 443.6C556.089 445.664 554.713 446.864 553.113 446.864C551.513 446.864 550.153 445.648 550.153 443.584C550.153 441.52 551.513 440.352 553.113 440.352C554.713 440.352 556.089 441.568 556.089 443.6ZM568.341 443.6C568.341 440.832 566.405 439.088 563.909 439.088C561.429 439.088 559.477 440.832 559.477 443.6C559.477 446.384 561.365 448.144 563.845 448.144C566.341 448.144 568.341 446.384 568.341 443.6ZM560.965 443.6C560.965 441.392 562.357 440.352 563.893 440.352C565.397 440.352 566.853 441.392 566.853 443.6C566.853 445.824 565.365 446.864 563.845 446.864C562.325 446.864 560.965 445.824 560.965 443.6ZM571.711 443.232C571.711 441.2 572.767 440.576 574.159 440.576H574.543V439.072C573.151 439.072 572.207 439.68 571.711 440.656V439.232H570.255V448H571.711V443.232ZM575.68 443.584C575.68 446.304 577.488 448.144 579.824 448.144C581.44 448.144 582.576 447.312 583.104 446.368V448H584.576V439.232H583.104V440.832C582.592 439.92 581.472 439.088 579.84 439.088C577.488 439.088 575.68 440.848 575.68 443.584ZM583.104 443.6C583.104 445.664 581.728 446.864 580.128 446.864C578.528 446.864 577.168 445.648 577.168 443.584C577.168 441.52 578.528 440.352 580.128 440.352C581.728 440.352 583.104 441.568 583.104 443.6ZM590.262 439.232L593.702 448H595.398L598.838 439.232H597.286L594.566 446.656L591.83 439.232H590.262ZM608.591 443.6C608.591 440.832 606.655 439.088 604.159 439.088C601.679 439.088 599.727 440.832 599.727 443.6C599.727 446.384 601.615 448.144 604.095 448.144C606.591 448.144 608.591 446.384 608.591 443.6ZM601.215 443.6C601.215 441.392 602.607 440.352 604.143 440.352C605.647 440.352 607.103 441.392 607.103 443.6C607.103 445.824 605.615 446.864 604.095 446.864C602.575 446.864 601.215 445.824 601.215 443.6ZM609.961 443.6C609.961 446.384 611.737 448.144 614.233 448.144C616.409 448.144 617.833 446.928 618.281 445.184H616.713C616.393 446.288 615.529 446.912 614.233 446.912C612.633 446.912 611.449 445.776 611.449 443.6C611.449 441.456 612.633 440.32 614.233 440.32C615.529 440.32 616.409 440.992 616.713 442.048H618.281C617.833 440.208 616.409 439.088 614.233 439.088C611.737 439.088 609.961 440.848 609.961 443.6ZM623.952 440.32C625.456 440.32 626.736 441.264 626.72 442.976H621.184C621.344 441.264 622.528 440.32 623.952 440.32ZM628.048 445.296H626.48C626.16 446.24 625.328 446.912 624.016 446.912C622.528 446.912 621.28 445.936 621.168 444.16H628.176C628.208 443.856 628.224 443.6 628.224 443.28C628.224 440.88 626.56 439.088 624.016 439.088C621.456 439.088 619.68 440.832 619.68 443.6C619.68 446.384 621.52 448.144 624.016 448.144C626.192 448.144 627.6 446.896 628.048 445.296ZM626.176 437.296L623.968 435.968L621.744 437.296V438.448L623.968 437.088L626.176 438.448V437.296ZM634.684 448H636.14V440.432H637.98V439.232H636.14V438.608C636.14 437.472 636.572 436.992 637.884 436.992V435.776C635.644 435.776 634.684 436.656 634.684 438.608V439.232H633.548V440.432H634.684V448ZM639.133 443.584C639.133 446.304 640.941 448.144 643.277 448.144C644.893 448.144 646.029 447.312 646.557 446.368V448H648.029V439.232H646.557V440.832C646.045 439.92 644.925 439.088 643.293 439.088C640.941 439.088 639.133 440.848 639.133 443.584ZM646.557 443.6C646.557 445.664 645.181 446.864 643.581 446.864C641.981 446.864 640.621 445.648 640.621 443.584C640.621 441.52 641.981 440.352 643.581 440.352C645.181 440.352 646.557 441.568 646.557 443.6ZM655.85 439.232H649.946V440.416H654.17L649.914 446.8V448H655.882V446.8H651.578L655.85 440.416V439.232ZM663.493 440.848V439.232H662.037V452.16H663.493V446.384C664.037 447.28 665.173 448.144 666.773 448.144C669.125 448.144 670.933 446.304 670.933 443.584C670.933 440.848 669.125 439.088 666.773 439.088C665.173 439.088 664.021 439.92 663.493 440.848ZM669.445 443.584C669.445 445.648 668.085 446.864 666.469 446.864C664.885 446.864 663.493 445.664 663.493 443.6C663.493 441.568 664.885 440.352 666.469 440.352C668.085 440.352 669.445 441.52 669.445 443.584ZM672.305 443.584C672.305 446.304 674.113 448.144 676.449 448.144C678.065 448.144 679.201 447.312 679.729 446.368V448H681.201V439.232H679.729V440.832C679.217 439.92 678.097 439.088 676.465 439.088C674.113 439.088 672.305 440.848 672.305 443.584ZM679.729 443.6C679.729 445.664 678.353 446.864 676.753 446.864C675.153 446.864 673.793 445.648 673.793 443.584C673.793 441.52 675.153 440.352 676.753 440.352C678.353 440.352 679.729 441.568 679.729 443.6ZM685.118 443.232C685.118 441.2 686.174 440.576 687.566 440.576H687.95V439.072C686.558 439.072 685.614 439.68 685.118 440.656V439.232H683.662V448H685.118V443.232ZM689.95 445.6C689.95 447.36 690.83 448 692.382 448H693.694V446.768H692.622C691.726 446.768 691.406 446.464 691.406 445.6V440.432H693.694V439.232H691.406V437.024H689.95V439.232H688.814V440.432H689.95V445.6ZM699.187 440.32C700.691 440.32 701.971 441.264 701.955 442.976H696.419C696.579 441.264 697.763 440.32 699.187 440.32ZM703.283 445.296H701.715C701.395 446.24 700.563 446.912 699.251 446.912C697.763 446.912 696.515 445.936 696.403 444.16H703.411C703.443 443.856 703.459 443.6 703.459 443.28C703.459 440.88 701.795 439.088 699.251 439.088C696.691 439.088 694.915 440.832 694.915 443.6C694.915 446.384 696.755 448.144 699.251 448.144C701.427 448.144 702.835 446.896 703.283 445.296ZM709.102 443.584C709.102 446.304 710.91 448.144 713.262 448.144C714.862 448.144 715.998 447.328 716.526 446.352V448H717.998V436.16H716.526V440.8C715.918 439.792 714.654 439.088 713.278 439.088C710.91 439.088 709.102 440.848 709.102 443.584ZM716.526 443.6C716.526 445.664 715.15 446.864 713.55 446.864C711.95 446.864 710.59 445.648 710.59 443.584C710.59 441.52 711.95 440.352 713.55 440.352C715.15 440.352 716.526 441.568 716.526 443.6ZM719.915 443.584C719.915 446.304 721.723 448.144 724.059 448.144C725.675 448.144 726.811 447.312 727.339 446.368V448H728.811V439.232H727.339V440.832C726.827 439.92 725.707 439.088 724.075 439.088C721.723 439.088 719.915 440.848 719.915 443.584ZM727.339 443.6C727.339 445.664 725.963 446.864 724.363 446.864C722.763 446.864 721.403 445.648 721.403 443.584C721.403 441.52 722.763 440.352 724.363 440.352C725.963 440.352 727.339 441.568 727.339 443.6ZM736.993 440.848V439.232H735.537V452.16H736.993V446.384C737.537 447.28 738.673 448.144 740.273 448.144C742.625 448.144 744.433 446.304 744.433 443.584C744.433 440.848 742.625 439.088 740.273 439.088C738.673 439.088 737.521 439.92 736.993 440.848ZM742.945 443.584C742.945 445.648 741.585 446.864 739.969 446.864C738.385 446.864 736.993 445.664 736.993 443.6C736.993 441.568 738.385 440.352 739.969 440.352C741.585 440.352 742.945 441.52 742.945 443.584ZM746.349 448H747.805V436.16H746.349V448ZM749.743 443.584C749.743 446.304 751.551 448.144 753.887 448.144C755.503 448.144 756.639 447.312 757.167 446.368V448H758.639V439.232H757.167V440.832C756.655 439.92 755.535 439.088 753.903 439.088C751.551 439.088 749.743 440.848 749.743 443.584ZM757.167 443.6C757.167 445.664 755.791 446.864 754.191 446.864C752.591 446.864 751.231 445.648 751.231 443.584C751.231 441.52 752.591 440.352 754.191 440.352C755.791 440.352 757.167 441.568 757.167 443.6ZM761.419 445.6C761.419 447.36 762.299 448 763.851 448H765.163V446.768H764.091C763.195 446.768 762.875 446.464 762.875 445.6V440.432H765.163V439.232H762.875V437.024H761.419V439.232H760.283V440.432H761.419V445.6ZM766.383 443.584C766.383 446.304 768.191 448.144 770.527 448.144C772.143 448.144 773.279 447.312 773.807 446.368V448H775.279V439.232H773.807V440.832C773.295 439.92 772.175 439.088 770.543 439.088C768.191 439.088 766.383 440.848 766.383 443.584ZM773.807 443.6C773.807 445.664 772.431 446.864 770.831 446.864C769.231 446.864 767.871 445.648 767.871 443.584C767.871 441.52 769.231 440.352 770.831 440.352C772.431 440.352 773.807 441.568 773.807 443.6ZM778.012 448H779.468V440.432H781.308V439.232H779.468V438.608C779.468 437.472 779.9 436.992 781.212 436.992V435.776C778.972 435.776 778.012 436.656 778.012 438.608V439.232H776.876V440.432H778.012V448ZM791.325 443.6C791.325 440.832 789.389 439.088 786.893 439.088C784.413 439.088 782.461 440.832 782.461 443.6C782.461 446.384 784.349 448.144 786.829 448.144C789.325 448.144 791.325 446.384 791.325 443.6ZM783.949 443.6C783.949 441.392 785.341 440.352 786.877 440.352C788.381 440.352 789.837 441.392 789.837 443.6C789.837 445.824 788.349 446.864 786.829 446.864C785.309 446.864 783.949 445.824 783.949 443.6ZM794.696 443.232C794.696 441.2 795.752 440.576 797.144 440.576H797.528V439.072C796.136 439.072 795.192 439.68 794.696 440.656V439.232H793.24V448H794.696V443.232ZM811.865 448H813.305V442.832C813.305 440.32 811.753 439.072 809.753 439.072C808.409 439.072 807.161 439.76 806.649 441.024C806.073 439.712 804.873 439.072 803.433 439.072C802.281 439.072 801.241 439.568 800.665 440.496V439.232H799.209V448H800.665V443.168C800.665 441.28 801.673 440.336 803.145 440.336C804.585 440.336 805.545 441.248 805.545 443.04V448H806.985V443.168C806.985 441.28 807.993 440.336 809.465 440.336C810.905 440.336 811.865 441.248 811.865 443.04V448ZM815.149 443.584C815.149 446.304 816.957 448.144 819.293 448.144C820.909 448.144 822.045 447.312 822.573 446.368V448H824.045V439.232H822.573V440.832C822.061 439.92 820.941 439.088 819.309 439.088C816.957 439.088 815.149 440.848 815.149 443.584ZM822.573 443.6C822.573 445.664 821.197 446.864 819.597 446.864C817.997 446.864 816.637 445.648 816.637 443.584C816.637 441.52 817.997 440.352 819.597 440.352C821.197 440.352 822.573 441.568 822.573 443.6ZM830.227 443.584C830.227 446.304 832.035 448.144 834.387 448.144C835.987 448.144 837.123 447.328 837.651 446.352V448H839.123V436.16H837.651V440.8C837.043 439.792 835.779 439.088 834.403 439.088C832.035 439.088 830.227 440.848 830.227 443.584ZM837.651 443.6C837.651 445.664 836.275 446.864 834.675 446.864C833.075 446.864 831.715 445.648 831.715 443.584C831.715 441.52 833.075 440.352 834.675 440.352C836.275 440.352 837.651 441.568 837.651 443.6ZM841.04 443.584C841.04 446.304 842.848 448.144 845.184 448.144C846.8 448.144 847.936 447.312 848.464 446.368V448H849.936V439.232H848.464V440.832C847.952 439.92 846.832 439.088 845.2 439.088C842.848 439.088 841.04 440.848 841.04 443.584ZM848.464 443.6C848.464 445.664 847.088 446.864 845.488 446.864C843.888 446.864 842.528 445.648 842.528 443.584C842.528 441.52 843.888 440.352 845.488 440.352C847.088 440.352 848.464 441.568 848.464 443.6ZM858.118 442.144V438.048H860.262C861.926 438.048 862.63 438.816 862.63 440.112C862.63 441.36 861.926 442.144 860.262 442.144H858.118ZM864.118 440.112C864.118 438.288 862.886 436.848 860.262 436.848H856.662V448H858.118V443.344H860.262C863.03 443.344 864.118 441.808 864.118 440.112ZM867.383 443.232C867.383 441.2 868.439 440.576 869.831 440.576H870.215V439.072C868.823 439.072 867.879 439.68 867.383 440.656V439.232H865.927V448H867.383V443.232ZM880.216 443.6C880.216 440.832 878.28 439.088 875.784 439.088C873.304 439.088 871.352 440.832 871.352 443.6C871.352 446.384 873.24 448.144 875.72 448.144C878.216 448.144 880.216 446.384 880.216 443.6ZM872.84 443.6C872.84 441.392 874.232 440.352 875.768 440.352C877.272 440.352 878.728 441.392 878.728 443.6C878.728 445.824 877.24 446.864 875.72 446.864C874.2 446.864 872.84 445.824 872.84 443.6ZM882.402 448H883.858V440.432H885.698V439.232H883.858V438.608C883.858 437.472 884.29 436.992 885.602 436.992V435.776C883.362 435.776 882.402 436.656 882.402 438.608V439.232H881.266V440.432H882.402V448ZM887.668 448H889.124V440.432H890.964V439.232H889.124V438.608C889.124 437.472 889.556 436.992 890.868 436.992V435.776C888.628 435.776 887.668 436.656 887.668 438.608V439.232H886.532V440.432H887.668V448ZM895.99 446.336L893.238 439.232H891.622L895.158 447.904L893.43 452.128H894.934L900.214 439.232H898.71L895.99 446.336ZM903.101 447.104C903.101 446.544 902.669 446.112 902.141 446.112C901.581 446.112 901.149 446.544 901.149 447.104C901.149 447.664 901.581 448.096 902.141 448.096C902.669 448.096 903.101 447.664 903.101 447.104ZM599.2 464.032H602.256V474H603.712V464.032H606.752V462.848H599.2V464.032ZM612.273 466.32C613.777 466.32 615.057 467.264 615.041 468.976H609.505C609.664 467.264 610.849 466.32 612.273 466.32ZM616.369 471.296H614.801C614.481 472.24 613.649 472.912 612.337 472.912C610.849 472.912 609.601 471.936 609.489 470.16H616.497C616.529 469.856 616.545 469.6 616.545 469.28C616.545 466.88 614.881 465.088 612.337 465.088C609.777 465.088 608.001 466.832 608.001 469.6C608.001 472.384 609.841 474.144 612.337 474.144C614.513 474.144 615.921 472.896 616.369 471.296ZM624.882 474H626.322V468.832C626.322 466.32 624.77 465.072 622.738 465.072C621.554 465.072 620.498 465.568 619.922 466.48V465.232H618.466V474H619.922V469.152C619.922 467.264 620.946 466.336 622.434 466.336C623.906 466.336 624.882 467.248 624.882 469.04V474ZM628.701 474H630.157V469.152C630.157 467.264 631.181 466.336 632.669 466.336C634.141 466.336 635.117 467.248 635.117 469.04V474H636.557V468.832C636.557 466.32 635.005 465.072 633.053 465.072C631.821 465.072 630.733 465.568 630.157 466.496V462.16H628.701V474ZM638.391 469.584C638.391 472.304 640.199 474.144 642.535 474.144C644.151 474.144 645.287 473.312 645.815 472.368V474H647.287V465.232H645.815V466.832C645.303 465.92 644.183 465.088 642.551 465.088C640.199 465.088 638.391 466.848 638.391 469.584ZM645.815 469.6C645.815 471.664 644.439 472.864 642.839 472.864C641.239 472.864 639.879 471.648 639.879 469.584C639.879 467.52 641.239 466.352 642.839 466.352C644.439 466.352 645.815 467.568 645.815 469.6ZM661.789 465.232H660.333V470.048C660.333 471.936 659.325 472.864 657.821 472.864C656.349 472.864 655.373 471.952 655.373 470.176V465.232H653.933V470.368C653.933 472.88 655.517 474.128 657.533 474.128C658.701 474.128 659.773 473.616 660.333 472.704V474H661.789V465.232ZM676.904 474H678.344V468.832C678.344 466.32 676.792 465.072 674.792 465.072C673.448 465.072 672.2 465.76 671.688 467.024C671.112 465.712 669.912 465.072 668.472 465.072C667.32 465.072 666.28 465.568 665.704 466.496V465.232H664.248V474H665.704V469.168C665.704 467.28 666.712 466.336 668.184 466.336C669.624 466.336 670.584 467.248 670.584 469.04V474H672.024V469.168C672.024 467.28 673.032 466.336 674.504 466.336C675.944 466.336 676.904 467.248 676.904 469.04V474ZM680.188 469.584C680.188 472.304 681.996 474.144 684.332 474.144C685.948 474.144 687.084 473.312 687.612 472.368V474H689.084V465.232H687.612V466.832C687.1 465.92 685.98 465.088 684.348 465.088C681.996 465.088 680.188 466.848 680.188 469.584ZM687.612 469.6C687.612 471.664 686.236 472.864 684.636 472.864C683.036 472.864 681.676 471.648 681.676 469.584C681.676 467.52 683.036 466.352 684.636 466.352C686.236 466.352 687.612 467.568 687.612 469.6ZM704.13 469.6C704.13 466.832 702.194 465.088 699.698 465.088C697.218 465.088 695.266 466.832 695.266 469.6C695.266 472.384 697.154 474.144 699.634 474.144C702.13 474.144 704.13 472.384 704.13 469.6ZM696.754 469.6C696.754 467.392 698.146 466.352 699.682 466.352C701.186 466.352 702.642 467.392 702.642 469.6C702.642 471.824 701.154 472.864 699.634 472.864C698.114 472.864 696.754 471.824 696.754 469.6ZM697.858 463.376V464.464L701.266 462.64V461.376L697.858 463.376ZM706.365 471.6C706.365 473.36 707.245 474 708.797 474H710.109V472.768H709.036C708.141 472.768 707.821 472.464 707.821 471.6V466.432H710.109V465.232H707.821V463.024H706.365V465.232H705.229V466.432H706.365V471.6ZM711.873 474H713.329V465.232H711.873V474ZM712.625 463.808C713.153 463.808 713.585 463.376 713.585 462.816C713.585 462.256 713.153 461.824 712.625 461.824C712.065 461.824 711.633 462.256 711.633 462.816C711.633 463.376 712.065 463.808 712.625 463.808ZM728.466 474H729.906V468.832C729.906 466.32 728.354 465.072 726.354 465.072C725.01 465.072 723.762 465.76 723.25 467.024C722.674 465.712 721.474 465.072 720.034 465.072C718.882 465.072 717.842 465.568 717.266 466.496V465.232H715.81V474H717.266V469.168C717.266 467.28 718.274 466.336 719.746 466.336C721.186 466.336 722.146 467.248 722.146 469.04V474H723.586V469.168C723.586 467.28 724.594 466.336 726.066 466.336C727.506 466.336 728.466 467.248 728.466 469.04V474ZM731.751 469.584C731.751 472.304 733.559 474.144 735.895 474.144C737.511 474.144 738.647 473.312 739.175 472.368V474H740.647V465.232H739.175V466.832C738.663 465.92 737.543 465.088 735.911 465.088C733.559 465.088 731.751 466.848 731.751 469.584ZM739.175 469.6C739.175 471.664 737.799 472.864 736.199 472.864C734.599 472.864 733.239 471.648 733.239 469.584C733.239 467.52 734.599 466.352 736.199 466.352C737.799 466.352 739.175 467.568 739.175 469.6ZM751.101 466.32C752.605 466.32 753.885 467.264 753.869 468.976H748.333C748.493 467.264 749.677 466.32 751.101 466.32ZM755.197 471.296H753.629C753.309 472.24 752.477 472.912 751.165 472.912C749.677 472.912 748.429 471.936 748.317 470.16H755.325C755.357 469.856 755.373 469.6 755.373 469.28C755.373 466.88 753.709 465.088 751.165 465.088C748.605 465.088 746.829 466.832 746.829 469.6C746.829 472.384 748.669 474.144 751.165 474.144C753.341 474.144 754.749 472.896 755.197 471.296ZM761.871 474H763.519L760.687 469.568L763.503 465.232H761.983L759.999 468.48L757.919 465.232H756.271L759.103 469.648L756.271 474H757.791L759.791 470.736L761.871 474ZM766.407 466.848V465.232H764.951V478.16H766.407V472.384C766.951 473.28 768.087 474.144 769.687 474.144C772.039 474.144 773.847 472.304 773.847 469.584C773.847 466.848 772.039 465.088 769.687 465.088C768.087 465.088 766.935 465.92 766.407 466.848ZM772.359 469.584C772.359 471.648 770.999 472.864 769.383 472.864C767.799 472.864 766.407 471.664 766.407 469.6C766.407 467.568 767.799 466.352 769.383 466.352C770.999 466.352 772.359 467.52 772.359 469.584ZM779.491 466.32C780.995 466.32 782.275 467.264 782.259 468.976H776.723C776.883 467.264 778.067 466.32 779.491 466.32ZM783.587 471.296H782.019C781.699 472.24 780.867 472.912 779.555 472.912C778.067 472.912 776.819 471.936 776.707 470.16H783.715C783.747 469.856 783.763 469.6 783.763 469.28C783.763 466.88 782.099 465.088 779.555 465.088C776.995 465.088 775.219 466.832 775.219 469.6C775.219 472.384 777.059 474.144 779.555 474.144C781.731 474.144 783.139 472.896 783.587 471.296ZM787.141 469.232C787.141 467.2 788.197 466.576 789.589 466.576H789.973V465.072C788.581 465.072 787.637 465.68 787.141 466.656V465.232H785.685V474H787.141V469.232ZM791.654 474H793.11V465.232H791.654V474ZM792.406 463.808C792.934 463.808 793.366 463.376 793.366 462.816C793.366 462.256 792.934 461.824 792.406 461.824C791.846 461.824 791.414 462.256 791.414 462.816C791.414 463.376 791.846 463.808 792.406 463.808ZM799.319 466.32C800.823 466.32 802.103 467.264 802.087 468.976H796.551C796.711 467.264 797.895 466.32 799.319 466.32ZM803.415 471.296H801.847C801.527 472.24 800.695 472.912 799.383 472.912C797.895 472.912 796.647 471.936 796.535 470.16H803.543C803.575 469.856 803.591 469.6 803.591 469.28C803.591 466.88 801.927 465.088 799.383 465.088C796.823 465.088 795.047 466.832 795.047 469.6C795.047 472.384 796.887 474.144 799.383 474.144C801.559 474.144 802.967 472.896 803.415 471.296ZM801.543 463.296L799.335 461.968L797.111 463.296V464.448L799.335 463.088L801.543 464.448V463.296ZM811.929 474H813.369V468.832C813.369 466.32 811.817 465.072 809.785 465.072C808.601 465.072 807.545 465.568 806.969 466.48V465.232H805.513V474H806.969V469.152C806.969 467.264 807.993 466.336 809.481 466.336C810.953 466.336 811.929 467.248 811.929 469.04V474ZM815.204 469.6C815.204 472.384 816.98 474.144 819.476 474.144C821.652 474.144 823.076 472.928 823.524 471.184H821.956C821.636 472.288 820.772 472.912 819.476 472.912C817.876 472.912 816.692 471.776 816.692 469.6C816.692 467.456 817.876 466.32 819.476 466.32C820.772 466.32 821.652 466.992 821.956 468.048H823.524C823.076 466.208 821.652 465.088 819.476 465.088C816.98 465.088 815.204 466.848 815.204 469.6ZM825.466 474H826.922V465.232H825.466V474ZM826.218 463.808C826.746 463.808 827.178 463.376 827.178 462.816C827.178 462.256 826.746 461.824 826.218 461.824C825.658 461.824 825.226 462.256 825.226 462.816C825.226 463.376 825.658 463.808 826.218 463.808ZM828.86 469.584C828.86 472.304 830.668 474.144 833.004 474.144C834.62 474.144 835.756 473.312 836.284 472.368V474H837.756V465.232H836.284V466.832C835.772 465.92 834.652 465.088 833.02 465.088C830.668 465.088 828.86 466.848 828.86 469.584ZM836.284 469.6C836.284 471.664 834.908 472.864 833.308 472.864C831.708 472.864 830.348 471.648 830.348 469.584C830.348 467.52 831.708 466.352 833.308 466.352C834.908 466.352 836.284 467.568 836.284 469.6ZM841.64 473.104C841.64 472.544 841.208 472.112 840.68 472.112C840.12 472.112 839.688 472.544 839.688 473.104C839.688 473.664 840.12 474.096 840.68 474.096C841.208 474.096 841.64 473.664 841.64 473.104Z" fill="#D4C2FF"/>
<path d="M741 308H701C687.195 308 676 296.805 676 283V243C676 229.195 687.195 218 701 218H741C754.805 218 766 229.195 766 243V283C766 296.805 754.805 308 741 308Z" stroke="#04D361" stroke-width="6" stroke-linecap="round" stroke-linejoin="round"/>
<path d="M732.334 258L718.169 272.165L709.669 263.665" stroke="#04D361" stroke-width="6" stroke-linecap="round" stroke-linejoin="round"/>
<path d="M639 569C639 564.582 642.582 561 647 561H793C797.418 561 801 564.582 801 569V609C801 613.418 797.418 617 793 617H647C642.582 617 639 613.418 639 609V569Z" fill="#04D361"/>
<path d="M675.644 583.024H683.532V584.768H677.692V587.744H682.956V589.488H677.692V594H675.644V583.024ZM686.816 594.192C686.134 594.192 685.515 594.027 684.96 593.696C684.416 593.355 684.144 592.731 684.144 591.824C684.144 590.747 684.603 589.989 685.52 589.552C686.438 589.115 687.739 588.896 689.424 588.896V588.192C689.424 587.787 689.318 587.472 689.104 587.248C688.902 587.024 688.528 586.912 687.984 586.912C687.419 586.912 687.019 587.003 686.784 587.184C686.55 587.365 686.432 587.589 686.432 587.856V588.08H684.576C684.566 588.016 684.56 587.899 684.56 587.728C684.56 587.003 684.87 586.432 685.488 586.016C686.118 585.6 686.95 585.392 687.984 585.392C689.104 585.392 689.942 585.621 690.496 586.08C691.062 586.539 691.344 587.195 691.344 588.048V592.064C691.344 592.256 691.398 592.4 691.504 592.496C691.611 592.581 691.744 592.624 691.904 592.624H692.416V593.936C692.075 594.096 691.675 594.176 691.216 594.176C690.8 594.176 690.454 594.075 690.176 593.872C689.899 593.669 689.712 593.392 689.616 593.04H689.504C688.875 593.808 687.979 594.192 686.816 594.192ZM687.392 592.656C688.022 592.656 688.518 592.475 688.88 592.112C689.243 591.749 689.424 591.259 689.424 590.64V590.256C688.39 590.256 687.579 590.357 686.992 590.56C686.406 590.752 686.112 591.109 686.112 591.632C686.112 592.315 686.539 592.656 687.392 592.656ZM692.891 593.104L697.179 587.152H693.163V585.584H699.979V586.464L695.675 592.432H700.171V594H692.891V593.104ZM705.163 594.192C703.798 594.192 702.784 593.835 702.123 593.12C701.462 592.405 701.131 591.296 701.131 589.792C701.131 588.288 701.462 587.179 702.123 586.464C702.795 585.749 703.808 585.392 705.163 585.392C706.4 585.392 707.323 585.739 707.931 586.432C708.55 587.125 708.859 588.208 708.859 589.68V590.256H703.083C703.115 591.088 703.291 591.701 703.611 592.096C703.942 592.48 704.464 592.672 705.179 592.672C705.712 592.672 706.144 592.539 706.475 592.272C706.806 591.995 706.971 591.589 706.971 591.056H708.859C708.859 592.091 708.518 592.875 707.835 593.408C707.152 593.931 706.262 594.192 705.163 594.192ZM706.859 588.896C706.859 587.573 706.294 586.912 705.163 586.912C704.523 586.912 704.038 587.077 703.707 587.408C703.387 587.728 703.19 588.224 703.115 588.896H706.859ZM710.55 585.584H712.134L712.31 586.912H712.422C712.806 585.899 713.435 585.392 714.31 585.392C714.608 585.392 714.875 585.44 715.11 585.536V587.344H714.502C713.147 587.344 712.47 588.101 712.47 589.616V594H710.55V585.584ZM720.925 582.432H722.845V594H720.925V582.432ZM728.681 594.192C727.295 594.192 726.255 593.835 725.561 593.12C724.879 592.405 724.537 591.296 724.537 589.792C724.537 588.288 724.879 587.179 725.561 586.464C726.255 585.749 727.295 585.392 728.681 585.392C730.068 585.392 731.103 585.749 731.785 586.464C732.479 587.179 732.825 588.288 732.825 589.792C732.825 591.296 732.479 592.405 731.785 593.12C731.103 593.835 730.068 594.192 728.681 594.192ZM728.681 592.624C729.439 592.624 729.988 592.405 730.329 591.968C730.671 591.52 730.841 590.832 730.841 589.904V589.68C730.841 588.752 730.671 588.069 730.329 587.632C729.988 587.184 729.439 586.96 728.681 586.96C727.913 586.96 727.359 587.184 727.017 587.632C726.687 588.069 726.521 588.752 726.521 589.68V589.904C726.521 590.832 726.687 591.52 727.017 591.968C727.359 592.405 727.913 592.624 728.681 592.624ZM735.926 596.912C735.329 596.912 734.817 596.736 734.39 596.384C733.974 596.043 733.766 595.563 733.766 594.944C733.766 594.176 734.203 593.595 735.078 593.2C734.822 593.061 734.619 592.885 734.47 592.672C734.321 592.459 734.246 592.208 734.246 591.92C734.246 591.547 734.385 591.237 734.662 590.992C734.95 590.747 735.297 590.576 735.702 590.48C735.318 590.235 735.019 589.92 734.806 589.536C734.603 589.152 734.502 588.72 734.502 588.24C734.502 587.355 734.817 586.661 735.446 586.16C736.086 585.648 736.977 585.392 738.118 585.392C738.758 585.392 739.313 585.477 739.782 585.648C740.123 585.445 740.374 585.216 740.534 584.96C740.694 584.693 740.785 584.437 740.806 584.192H742.662C742.662 584.747 742.507 585.205 742.198 585.568C741.889 585.931 741.462 586.171 740.918 586.288C741.473 586.811 741.75 587.461 741.75 588.24C741.75 589.125 741.441 589.824 740.822 590.336C740.203 590.848 739.334 591.104 738.214 591.104H736.902C736.678 591.104 736.502 591.152 736.374 591.248C736.246 591.344 736.182 591.477 736.182 591.648C736.182 591.808 736.241 591.941 736.358 592.048C736.475 592.144 736.635 592.192 736.838 592.192H740.518C741.147 592.192 741.665 592.4 742.07 592.816C742.475 593.221 742.678 593.739 742.678 594.368C742.678 594.837 742.555 595.264 742.31 595.648C742.065 596.043 741.713 596.352 741.254 596.576C740.806 596.8 740.289 596.912 739.702 596.912H735.926ZM738.134 589.744C738.699 589.744 739.126 589.616 739.414 589.36C739.702 589.093 739.846 588.72 739.846 588.24C739.846 587.76 739.702 587.392 739.414 587.136C739.126 586.869 738.699 586.736 738.134 586.736C737.569 586.736 737.142 586.869 736.854 587.136C736.566 587.392 736.422 587.76 736.422 588.24C736.422 588.731 736.566 589.104 736.854 589.36C737.142 589.616 737.569 589.744 738.134 589.744ZM739.702 595.52C740.001 595.52 740.251 595.44 740.454 595.28C740.657 595.131 740.758 594.928 740.758 594.672C740.758 594.405 740.673 594.197 740.502 594.048C740.331 593.899 740.107 593.824 739.83 593.824H736.598C736.331 593.824 736.113 593.904 735.942 594.064C735.782 594.224 735.702 594.427 735.702 594.672C735.702 594.928 735.782 595.131 735.942 595.28C736.113 595.44 736.331 595.52 736.598 595.52H739.702ZM744.003 582.432H745.891V584.32H744.003V582.432ZM744.003 585.584H745.923V594H744.003V585.584ZM748.143 585.584H749.727L749.887 586.704H749.999C750.309 586.288 750.687 585.968 751.135 585.744C751.594 585.509 752.117 585.392 752.703 585.392C753.557 585.392 754.223 585.627 754.703 586.096C755.183 586.555 755.423 587.296 755.423 588.32V594H753.503V588.656C753.503 588.08 753.37 587.669 753.103 587.424C752.847 587.179 752.463 587.056 751.951 587.056C751.418 587.056 750.97 587.248 750.607 587.632C750.245 588.016 750.063 588.507 750.063 589.104V594H748.143V585.584Z" fill="white"/>
</svg>
